<svg width="50" height="50" viewBox="0 0 50 50" fill="none" xmlns="http://www.w3.org/2000/svg">
<path d="M36.4583 24.4792C41.9236 24.4792 46.3542 28.9097 46.3542 34.375C46.3542 39.8403 41.9236 44.2708 36.4583 44.2708C32.0875 44.2708 28.3785 41.4371 27.0682 37.5066H22.9317C21.6215 41.4371 17.9125 44.2708 13.5417 44.2708C8.07634 44.2708 3.64582 39.8403 3.64582 34.375C3.64582 28.9097 8.07634 24.4792 13.5417 24.4792C18.6554 24.4792 22.8631 28.358 23.3834 33.3339H26.6166C27.1368 28.358 31.3446 24.4792 36.4583 24.4792ZM13.5417 28.6458C10.3775 28.6458 7.81249 31.2109 7.81249 34.375C7.81249 37.5391 10.3775 40.1042 13.5417 40.1042C16.7058 40.1042 19.2708 37.5391 19.2708 34.375C19.2708 31.2109 16.7058 28.6458 13.5417 28.6458ZM36.4583 28.6458C33.2942 28.6458 30.7292 31.2109 30.7292 34.375C30.7292 37.5391 33.2942 40.1042 36.4583 40.1042C39.6225 40.1042 42.1875 37.5391 42.1875 34.375C42.1875 31.2109 39.6225 28.6458 36.4583 28.6458ZM32.3165 6.25C34.8466 6.25 37.0771 7.90956 37.8041 10.3329L39.9001 17.3144C41.5513 17.5893 43.1672 17.9126 44.748 18.2845C45.868 18.5481 46.5623 19.6697 46.2988 20.7897C46.0352 21.9097 44.9137 22.604 43.7937 22.3405C38.053 20.9897 31.7889 20.3125 25 20.3125C18.2111 20.3125 11.947 20.9897 6.20632 22.3405C5.08632 22.604 3.96474 21.9097 3.70121 20.7897C3.43767 19.6697 4.13199 18.5481 5.25199 18.2845C6.83208 17.9128 8.44735 17.5895 10.0978 17.3148L12.1959 10.3329C12.9229 7.90956 15.1534 6.25 17.6835 6.25H32.3165Z" fill="white"/>
</svg>
